# xmcd
#
# Track frame offsets:
#	150
#	17712
#	34061
#	44637
#	57748
#	74519
#	87397
#	102768
#	134840
#	152936
#	163090
#	179736
#
# Disc length: 2709 seconds
#
# Revision: 1
# Processed by: cddbd v1.5.2PL0 Copyright (c) Steve Scherf et al.
# Submitted via: audiograbber 1.83.01
#
DISCID=b80a930c
DTITLE=BACKSLIDE - Unforgettable
DYEAR=2015
DGENRE=country
TTITLE0=God bless texas
TTITLE1=My dear Juliet
TTITLE2=Ghost rider in the sky
TTITLE3=My next broken heart
TTITLE4=Talk is cheap
TTITLE5=Bury the chovel
TTITLE6=Cotton picking timt
TTITLE7=Modern day Bonnie and Clyde
TTITLE8=Jambalaya live
TTITLE9=All shook up live
TTITLE10=Gold digger live
TTITLE11=Freight train live
EXTD=
EXTT0=
EXTT1=
EXTT2=
EXTT3=
EXTT4=
EXTT5=
EXTT6=
EXTT7=
EXTT8=
EXTT9=
EXTT10=
EXTT11=
PLAYORDER=
